<svg width="36" height="36" viewBox="0 0 36 36" fill="none" xmlns="http://www.w3.org/2000/svg">
<rect width="36" height="36" rx="18" fill="#FFFF00"/>
<path d="M4.22414 16.6547C3.69249 13.6396 3.42667 12.132 3.81039 10.8769C4.14791 9.77292 4.82628 8.80411 5.74826 8.10934C6.79642 7.3195 8.30397 7.05368 11.3191 6.52204L20.4272 4.91603C23.4424 4.38438 24.9499 4.11856 26.205 4.50228C27.309 4.83981 28.2778 5.51818 28.9726 6.44016C29.7624 7.48831 30.0282 8.99587 30.5599 12.011L31.809 19.0953C32.3407 22.1104 32.6065 23.6179 32.2228 24.873C31.8853 25.977 31.2069 26.9458 30.2849 27.6406C29.2368 28.4304 27.7292 28.6963 24.7141 29.2279L15.6059 30.8339C12.5908 31.3656 11.0833 31.6314 9.82818 31.2477C8.72418 30.9101 7.75537 30.2318 7.06061 29.3098C6.27077 28.2616 6.00494 26.7541 5.4733 23.739L4.22414 16.6547Z" fill="#7000FF"/>
<path d="M23.1346 12.4787C23.6777 12.5983 24.2032 12.7004 24.7188 12.8324C25.2668 12.9719 25.8098 13.1413 26.3528 13.2932C26.43 13.3156 26.4599 13.3455 26.4599 13.4327C26.4574 15.1289 26.4749 16.8277 26.4525 18.524C26.4275 20.3472 25.8522 21.9962 24.7437 23.4458C23.5083 25.0624 21.8917 26.1036 19.914 26.5768C19.1344 26.7636 18.3398 26.8259 17.5402 26.7786C15.6397 26.6665 13.9559 25.9965 12.5162 24.7535C11.0316 23.4757 10.0951 21.8667 9.71898 19.9387C9.61187 19.3908 9.56953 18.8353 9.56953 18.2774C9.56704 16.6708 9.56953 15.0667 9.56454 13.4601C9.56454 13.353 9.59942 13.3156 9.69656 13.2857C10.7327 12.9544 11.7889 12.6929 12.8574 12.4986C12.8674 12.4961 12.8774 12.4986 12.9023 12.4961C12.9023 12.5385 12.9023 12.5808 12.9023 12.6207C12.9023 14.6358 12.8948 16.6533 12.9073 18.6684C12.9147 19.6847 13.0517 20.6885 13.3979 21.6524C13.6719 22.4171 14.0779 23.0996 14.6832 23.6526C15.2511 24.1682 15.9162 24.4945 16.661 24.6539C17.7146 24.8806 18.7657 24.8631 19.7994 24.5368C21.0199 24.1532 21.8668 23.3412 22.4098 22.1979C22.7012 21.5877 22.8756 20.9401 22.9852 20.275C23.1072 19.5352 23.1371 18.788 23.1371 18.0407C23.1371 16.2424 23.1371 14.4415 23.1371 12.6431C23.1346 12.5958 23.1346 12.5509 23.1346 12.4787Z" fill="white"/>
<path d="M19.4956 16.2151C18.5017 16.2151 17.5178 16.2151 16.529 16.2151C16.529 13.8987 16.529 11.5847 16.529 9.27319C16.8378 9.17605 18.9077 9.16857 19.4956 9.26572C19.4956 11.5822 19.4956 13.8987 19.4956 16.2151Z" fill="white"/>
</svg>
