<svg data-v-2d735651="" width="24" height="24" viewBox="0 0 24 24" fill="none" xmlns="http://www.w3.org/2000/svg"
    class="ui-icon ">
    <path fill-rule="evenodd" clip-rule="evenodd"
        d="M13 2.75195C13 3.30424 12.5523 3.75195 12 3.75195C11.4477 3.75195 11 3.30424 11 2.75195C11 2.19967 11.4477 1.75195 12 1.75195C12.5523 1.75195 13 2.19967 13 2.75195ZM18.7883 6.35716C19.3406 6.35716 19.7883 5.90945 19.7883 5.35716C19.7883 4.80488 19.3406 4.35716 18.7883 4.35716C18.236 4.35716 17.7883 4.80488 17.7883 5.35716C17.7883 5.90945 18.236 6.35716 18.7883 6.35716ZM22.2556 12.25C22.2556 12.8022 21.8079 13.25 21.2556 13.25C20.7033 13.25 20.2556 12.8022 20.2556 12.25C20.2556 11.6977 20.7033 11.25 21.2556 11.25C21.8079 11.25 22.2556 11.6977 22.2556 12.25ZM18.7883 19.9969C19.3406 19.9969 19.7883 19.5492 19.7883 18.9969C19.7883 18.4446 19.3406 17.9969 18.7883 17.9969C18.236 17.9969 17.7883 18.4446 17.7883 18.9969C17.7883 19.5492 18.236 19.9969 18.7883 19.9969ZM12 22.7476C12.5523 22.7476 13 22.2999 13 21.7476C13 21.1953 12.5523 20.7476 12 20.7476C11.4477 20.7476 11 21.1953 11 21.7476C11 22.2999 11.4477 22.7476 12 22.7476ZM5.49854 6.35716C6.05082 6.35716 6.49854 5.90945 6.49854 5.35716C6.49854 4.80488 6.05082 4.35716 5.49854 4.35716C4.94625 4.35716 4.49854 4.80488 4.49854 5.35716C4.49854 5.90945 4.94625 6.35716 5.49854 6.35716ZM3.7439 12.25C3.7439 12.8022 3.29618 13.25 2.7439 13.25C2.19161 13.25 1.7439 12.8022 1.7439 12.25C1.7439 11.6977 2.19161 11.25 2.7439 11.25C3.29618 11.25 3.7439 11.6977 3.7439 12.25ZM5.49854 19.9969C6.05082 19.9969 6.49854 19.5492 6.49854 18.9969C6.49854 18.4446 6.05082 17.9969 5.49854 17.9969C4.94625 17.9969 4.49854 18.4446 4.49854 18.9969C4.49854 19.5492 4.94625 19.9969 5.49854 19.9969ZM12 16.75L12.0068 16.7499V7.74996L12 7.74995C9.51472 7.74995 7.5 9.76467 7.5 12.25C7.5 14.7352 9.51472 16.75 12 16.75ZM12 18.25C15.3137 18.25 18 15.5637 18 12.25C18 8.93625 15.3137 6.24995 12 6.24995C8.68629 6.24995 6 8.93625 6 12.25C6 15.5637 8.68629 18.25 12 18.25Z"
        fill="#1F2026"></path>
</svg>