<svg xmlns="http://www.w3.org/2000/svg" viewBox="0 0 40 40" fill="none">
  <path stroke="#B08AFC" stroke-linecap="round" stroke-linejoin="round" stroke-width="2.5" d="M10 11.463V10a3.75 3.75 0 013.75-3.75h12.5A3.75 3.75 0 0130 10v1.463m-20 0a3.744 3.744 0 011.25-.213h17.5c.438 0 .859.075 1.25.213m-20 0A3.752 3.752 0 007.5 15v1.463m22.5-5A3.752 3.752 0 0132.5 15v1.463m0 0a3.744 3.744 0 00-1.25-.213H8.75a3.75 3.75 0 00-1.25.213m25 0A3.752 3.752 0 0135 20v10a3.75 3.75 0 01-3.75 3.75H8.75A3.75 3.75 0 015 30V20a3.752 3.752 0 012.5-3.537"/>
</svg>